<svg width="125" height="40" fill="none" xmlns="http://www.w3.org/2000/svg"><path d="M24.627.685v.147c-.751 0-1.404.245-1.959.735-.555.457-.832 1.06-.832 1.811v35.888h-.685L3.524 3.427v33.195c0 .75.278 1.37.832 1.86.555.457 1.208.686 1.959.686v.098H0v-.098c.75 0 1.404-.229 1.958-.686.555-.49.833-1.11.833-1.86V3.525c0-.783-.278-1.42-.833-1.91C1.436 1.094.783.833 0 .833V.685h4.26l16.89 34.37V3.33c0-.75-.293-1.354-.88-1.811-.556-.457-1.208-.686-1.96-.686V.685h6.317zm15.027 0c1.795 0 3.476.506 5.042 1.518 1.6 1.012 2.987 2.4 4.162 4.162 1.175 1.73 2.089 3.77 2.742 6.12.685 2.35 1.028 4.847 1.028 7.49 0 2.677-.343 5.19-1.028 7.54-.653 2.318-1.567 4.358-2.742 6.12-1.175 1.73-2.562 3.101-4.162 4.113-1.566 1.012-3.247 1.518-5.042 1.518-1.796 0-3.477-.506-5.043-1.518-1.567-1.012-2.938-2.383-4.113-4.113-1.175-1.762-2.105-3.802-2.79-6.12-.686-2.35-1.029-4.863-1.029-7.54 0-2.643.343-5.14 1.028-7.49.686-2.35 1.616-4.39 2.791-6.12 1.175-1.763 2.546-3.15 4.113-4.162C36.177 1.191 37.858.685 39.654.685zm0 37.895c1.5 0 2.888-.49 4.161-1.469 1.306-.979 2.415-2.3 3.33-3.965.946-1.698 1.68-3.672 2.202-5.925.555-2.252.833-4.667.833-7.245 0-2.579-.278-4.994-.833-7.246-.522-2.253-1.256-4.211-2.203-5.876-.914-1.697-2.023-3.035-3.329-4.014-1.273-.98-2.66-1.47-4.161-1.47-1.502 0-2.89.49-4.162 1.47-1.273.979-2.383 2.317-3.33 4.014-.946 1.665-1.697 3.623-2.252 5.875-.522 2.253-.783 4.668-.783 7.247 0 2.578.261 4.993.784 7.245.554 2.253 1.305 4.227 2.252 5.925.946 1.664 2.056 2.986 3.329 3.965 1.273.98 2.66 1.47 4.162 1.47zm17.834-2.105V3.525c0-.783-.278-1.436-.833-1.958-.522-.523-1.175-.784-1.958-.784V.685h11.8c1.37 0 2.66.262 3.867.784a9.336 9.336 0 013.133 2.056 8.925 8.925 0 012.057 3.036c.522 1.142.783 2.382.783 3.72-.032 2.057-.62 3.901-1.762 5.533-1.11 1.6-2.579 2.758-4.407 3.476 1.208.13 2.334.49 3.378 1.077a10.29 10.29 0 012.791 2.203 9.502 9.502 0 011.812 3.036 9.663 9.663 0 01.685 3.623c0 1.37-.261 2.676-.783 3.917a10.603 10.603 0 01-2.106 3.182 9.588 9.588 0 01-3.133 2.154c-1.175.523-2.448.784-3.819.784H54.697v-.098c.783 0 1.436-.261 1.958-.784.555-.522.833-1.158.833-1.91zm2.154.49c0 .456.147.848.44 1.174.327.294.719.441 1.176.441h6.07c1.24 0 2.4-.245 3.477-.734a9.004 9.004 0 002.888-2.008 9.174 9.174 0 001.91-2.986 9.1 9.1 0 00.734-3.623 9.1 9.1 0 00-.734-3.623c-.49-1.143-1.143-2.122-1.959-2.938a9.005 9.005 0 00-2.888-2.007c-1.077-.49-2.252-.734-3.525-.734-.261 0-.539.016-.833.049a6.305 6.305 0 00-.832.146c-.326.066-.653.147-.98.245l-.048-.147c.261-.098.506-.195.734-.293.229-.066.474-.131.735-.196.26-.098.506-.18.734-.245a9.256 9.256 0 002.84-1.273 9.24 9.24 0 002.252-2.105 9.542 9.542 0 001.518-2.693 8.89 8.89 0 00.538-3.084 9.133 9.133 0 00-.636-3.379 8.616 8.616 0 00-1.812-2.84 8.359 8.359 0 00-2.644-2.007 7.431 7.431 0 00-3.28-.734h-4.26a1.6 1.6 0 00-1.174.49c-.294.293-.441.669-.441 1.126v33.978zM88.634.685v.098c-.784 0-1.453.261-2.008.784a2.598 2.598 0 00-.783 1.91v33.488c0 .456.147.848.44 1.174.327.294.719.441 1.176.441h9.4a3.966 3.966 0 002.301-.832c.718-.522 1.142-1.191 1.273-2.008h.147l-.49 4.211h-.098c0-.163-.081-.326-.245-.49a.609.609 0 00-.44-.195H80.898v-.147c.783 0 1.436-.245 1.959-.735.554-.522.832-1.175.832-1.958v-32.9c0-.784-.278-1.437-.832-1.96-.523-.522-1.176-.783-1.959-.783V.685h7.736zm32.331 0a.663.663 0 00.489-.195c.131-.164.196-.327.196-.49h.098l.49 4.162-.147.049c-.131-.85-.555-1.535-1.273-2.057a3.706 3.706 0 00-2.301-.783h-9.45c-.456 0-.832.163-1.126.49-.261.293-.391.669-.391 1.126v16.646h8.568c.75 0 1.354-.278 1.811-.832a3.182 3.182 0 00.686-2.008h.146v6.316h-.146c0-.75-.229-1.404-.686-1.958-.457-.555-1.061-.833-1.811-.833h-8.568v16.646c0 .458.147.85.44 1.175.327.294.718.441 1.175.441h11.163c.849 0 1.632-.26 2.35-.783.751-.522 1.159-1.208 1.224-2.056l.147.048L123.56 40h-.098a.846.846 0 00-.196-.539.666.666 0 00-.49-.195h-20.171v-.147c.783 0 1.436-.261 1.958-.784.555-.522.832-1.158.832-1.91v-32.9c0-.816-.277-1.469-.832-1.958-.522-.523-1.175-.784-1.958-.784V.685h18.36z" fill="#BB9930"/></svg>