<svg width="57" height="56" fill="none" xmlns="http://www.w3.org/2000/svg"><path d="M38.191 15.026c.025 1.01 1.058 3.163 4.99 3.688 4.917.657 13.87 2.28 12.515-2.867-1.356-5.146-10.096-1.673-12.063.974-2.08 2.8-.241 5.377.191 6.513.73 1.2 2.691 3.673 4.702 3.96 2.513.358 4.903.151 4.395-1.547-.305-1.02-2.66-1.055-3.676-.843-1.83.224-2.95 1.63-3.208 3.042-.439 2.398 2.079 5.313 2.188 5.453.673.864 3.261 2.403 4.524 2.44 1.643.047 1.809-.45 1.809-.45" stroke="#BB9930" stroke-width=".341" stroke-linecap="round"/><circle cx="28.855" cy="30.902" r="5.805" fill="#BB9930" stroke="#BB9930" stroke-width=".341"/><circle cx="40.124" cy="31.585" r="4.098" fill="#BB9930" stroke="#BB9930" stroke-width=".341"/><circle cx="35.852" cy="21.512" r="4.951" fill="#BB9930" stroke="#BB9930" stroke-width=".341"/><circle cx="22.879" cy="21.171" r="3.927" fill="#BB9930" stroke="#BB9930" stroke-width=".341"/><circle cx="18.1" cy="30.39" r="3.585" fill="#BB9930" stroke="#BB9930" stroke-width=".341"/><path d="M25.69 12.656c-.64.783-2.775 1.848-6.203-.15-4.285-2.498-12.35-6.71-8.122-9.942s8.999 4.873 8.927 8.17c-.076 3.487-3.11 4.394-4.147 5.025-1.313.5-4.379 1.25-6.142.242-2.205-1.259-3.965-2.889-2.522-3.918.867-.618 2.748.8 3.42 1.59 1.308 1.3 1.329 3.096.666 4.37-1.125 2.163-4.9 2.92-5.073 2.963-1.062.27-4.05-.104-5.07-.85-1.326-.97-1.152-1.463-1.152-1.463" stroke="#BB9930" stroke-width=".341" stroke-linecap="round"/><path d="M29.365 21.853c-1.166-1.87-2.806-6.55-1.66-12.216l.052-.25c.227-1.051.55-2.136.991-3.241" stroke="#BB9930" stroke-width="1.024" stroke-linecap="round"/><path d="M27.66 10.438c1.017.357 2.166.428 4.098 0" stroke="#BB9930" stroke-width=".683" stroke-linecap="round"/><circle cx="20.491" cy="38.585" r="3.585" fill="#BB9930" stroke="#BB9930" stroke-width=".341"/><circle cx="27.999" cy="40.634" r="2.902" fill="#BB9930" stroke="#BB9930" stroke-width=".341"/><circle cx="35.514" cy="39.61" r="3.585" fill="#BB9930" stroke="#BB9930" stroke-width=".341"/><circle cx="26.978" cy="46.781" r="2.561" fill="#BB9930" stroke="#BB9930" stroke-width=".341"/><circle cx="33.122" cy="46.097" r="2.561" fill="#BB9930" stroke="#BB9930" stroke-width=".341"/><circle cx="31.076" cy="51.219" r="1.878" fill="#BB9930" stroke="#BB9930" stroke-width=".341"/><circle cx="36.537" cy="50.878" r="1.878" fill="#BB9930" stroke="#BB9930" stroke-width=".341"/><circle cx="16.392" cy="23.902" r="1.878" fill="#BB9930" stroke="#BB9930" stroke-width=".341"/><circle cx="24.074" cy="43.195" r="1.024" fill="#BB9930" stroke="#BB9930" stroke-width=".341"/><circle cx="25.268" cy="15.365" r="1.195" fill="#BB9930" stroke="#BB9930" stroke-width=".341"/><circle cx="42.172" cy="25.438" r="1.024" fill="#BB9930" stroke="#BB9930" stroke-width=".341"/><circle cx="34.487" cy="53.951" r="1.195" fill="#BB9930" stroke="#BB9930" stroke-width=".341"/><circle cx="37.905" cy="45.415" r="1.195" fill="#BB9930" stroke="#BB9930" stroke-width=".341"/><path d="M40.406 5.569l-.17-.004h0v-.059l.003-.168a38.215 38.215 0 00-.05-2.442c-.04-.676-.107-1.352-.216-1.872a2.885 2.885 0 00-.192-.625c-.077-.16-.143-.21-.18-.22-.064-.019-.184-.008-.375.07-.184.076-.404.2-.649.363-.49.326-1.06.79-1.613 1.272a56.613 56.613 0 00-1.573 1.435c-.169.158-.314.294-.427.397-.065.06-.122.11-.166.149a.716.716 0 01-.122.089.188.188 0 01-.132.013.23.23 0 01-.068-.03.455.455 0 01-.076-.067 2.134 2.134 0 01-.147-.179c-.06-.078-.13-.175-.205-.278l-.18-.246a5.822 5.822 0 00-.42-.518 1.216 1.216 0 00-.171-.155c-.046-.033-.067-.036-.067-.037h.001c-.244 0-.591.156-.962.506-.367.345-.737.86-1.026 1.537-.176.41-.208.855-.223 1.233l-.004.089c-.006.15-.011.294-.027.41a.785.785 0 01-.052.201.333.333 0 01-.154.172c-.107.054-.449.24-.795.46-.173.11-.344.226-.486.337a1.6 1.6 0 00-.28.262v.002a.53.53 0 00.1.138c.113.124.3.275.537.435a7.416 7.416 0 001.66.828c.135.045.336.098.57.16l.018.004c.238.062.504.132.748.208.24.075.473.16.64.255a.738.738 0 01.218.175.32.32 0 01.07.25.218.218 0 01-.009.072.29.29 0 01-.046.088.793.793 0 01-.124.123c-.095.08-.234.179-.395.29l-.095.067c-.315.218-.713.495-1.115.827-.895.738-1.748 1.7-1.752 2.811a.685.685 0 00.134.043c.171.04.422.063.699.079.16.009.319.015.471.021l.326.014c.118.006.227.013.315.023.044.005.086.011.122.019a.46.46 0 01.11.035.311.311 0 01.135.147.874.874 0 01.056.158c.015.06.032.136.047.21l.03.138c.028.12.058.215.095.279.027.047.046.057.058.06.21-.032.48-.09.795-.162l.182-.042c.273-.062.571-.13.88-.193.757-.156 1.596-.286 2.328-.234.483.035 1.009.273 1.53.584.513.307 1.042.698 1.545 1.07l.028.02c.515.38.999.737 1.424.975.212.119.401.204.567.25.166.045.295.046.394.013.054-.018.105-.062.147-.16.043-.101.07-.246.076-.436.012-.38-.06-.886-.185-1.449-.247-1.123-.692-2.427-1.027-3.285l-.058-.15.145-.067c.983-.46 2.43-1.237 3.578-2.073.575-.418 1.067-.845 1.389-1.247.327-.41.445-.753.368-1.023-.035-.125-.144-.267-.343-.42a3.98 3.98 0 00-.778-.442c-.633-.286-1.446-.539-2.254-.75a35.302 35.302 0 00-3.107-.653l-.052-.009-.013-.002h-.004 0l.026-.17zm0 0l-.17-.004-.004.15.147.022.027-.168z" fill="#BB9930" stroke="#BB9930" stroke-width=".341" stroke-linecap="round"/></svg>