<svg width="189" height="40" fill="none" xmlns="http://www.w3.org/2000/svg"><path d="M28.449.733V.88c-.866 0-1.619.245-2.259.734-.64.456-.96 1.06-.96 1.809v35.843h-.79L4.114 3.473v33.154c0 .75.32 1.37.96 1.858.64.456 1.393.685 2.258.685v.098H.05v-.098c.866 0 1.618-.228 2.258-.685.64-.489.96-1.108.96-1.858V3.57c0-.783-.32-1.418-.96-1.907C1.705 1.14.952.88.05.88V.733h4.91l19.48 34.328V3.374c0-.75-.339-1.353-1.016-1.81-.64-.456-1.393-.684-2.259-.684V.733h7.284zm23.539 0a.832.832 0 00.565-.195c.15-.163.226-.326.226-.49h.113l.564 4.157-.17.05c-.15-.848-.639-1.533-1.467-2.055a4.713 4.713 0 00-2.654-.782H38.268c-.527 0-.96.163-1.298.49-.301.292-.452.667-.452 1.124v16.626h9.88c.866 0 1.563-.277 2.09-.832.527-.586.79-1.255.79-2.005h.17v6.309h-.17c0-.75-.263-1.402-.79-1.956-.527-.555-1.224-.832-2.09-.832h-9.88v16.626c0 .457.17.848.508 1.174.377.293.828.44 1.355.44h12.873c.979 0 1.882-.26 2.71-.782.866-.522 1.337-1.207 1.412-2.054l.17.049L54.98 40h-.113a.776.776 0 00-.226-.538.831.831 0 00-.565-.196h-23.26v-.146c.903 0 1.656-.261 2.258-.783.64-.521.96-1.157.96-1.907V3.57c0-.815-.32-1.467-.96-1.956-.602-.522-1.355-.783-2.258-.783V.733h21.172zM55.572 20c0-2.673.49-5.167 1.468-7.482.979-2.347 2.315-4.384 4.009-6.112a18.802 18.802 0 015.928-4.157C69.236 1.24 71.645.733 74.204.733h3.84c.3 0 .526-.065.677-.195A.776.776 0 0078.947 0h.17l4.347 4.205-.113.05a9.274 9.274 0 00-2.09-1.468 9.564 9.564 0 00-1.975-.88 10.219 10.219 0 00-1.807-.391 13.039 13.039 0 00-1.468-.098h-.734c-2.371 0-4.592.49-6.662 1.467a16.554 16.554 0 00-5.364 4.01c-1.506 1.662-2.691 3.618-3.557 5.868-.866 2.25-1.299 4.662-1.299 7.237s.433 4.988 1.299 7.237c.866 2.25 2.051 4.222 3.557 5.917a16.89 16.89 0 005.364 3.96c2.07.979 4.29 1.468 6.662 1.468 1.731 0 3.388-.26 4.969-.782a16.92 16.92 0 004.404-2.201l.056.147a18.38 18.38 0 01-4.969 2.591c-1.769.62-3.67.93-5.702.93-2.522 0-4.912-.506-7.17-1.516-2.26-1.011-4.216-2.38-5.873-4.108-1.656-1.76-2.973-3.798-3.952-6.112-.978-2.348-1.468-4.858-1.468-7.531zM85.855 0h.169c0 .456.263.685.79.685h25.408c.527 0 .79-.229.79-.685h.113l.565 4.205-.17.05c-.226-.816-.715-1.484-1.468-2.006-.752-.554-1.637-.83-2.653-.83h-6.776a2 2 0 00-1.355.488 1.424 1.424 0 00-.508 1.125V36.43c0 .75.32 1.386.96 1.907.64.522 1.393.783 2.258.783v.147h-8.92v-.147a3.34 3.34 0 002.258-.831c.678-.555 1.016-1.174 1.016-1.859V3.032c0-.457-.188-.832-.564-1.125-.339-.326-.772-.489-1.299-.489h-6.832c-1.016 0-1.9.277-2.653.831-.753.522-1.242 1.19-1.468 2.005l-.17-.049L85.854 0zm20.554 39.169c1.016 0 1.882-.245 2.597-.734.753-.489 1.242-1.157 1.468-2.005l9.373-30.709a3.93 3.93 0 00-.057-2.543A42.083 42.083 0 01119 .733h3.161c-.112.36-.207.685-.282.978-.075.261-.056.571.057.93l10.445 34.18c.037.066.113.229.226.49.15.26.376.537.677.83.301.262.697.506 1.186.734.527.196 1.148.294 1.863.294v.098h-8.074v-.098c.452-.033.828-.13 1.129-.294.264-.13.471-.31.621-.538.189-.26.207-.619.057-1.075l-5.025-16.48h-8.921l-5.025 16.333c-.15.456-.15.831 0 1.125.188.26.414.472.678.635.301.163.677.261 1.129.294v.098h-6.493v-.098zm9.881-19.071h8.525l-4.234-14.132-4.291 14.132zM138.719.88V.733h7.51c1.543 0 2.973.245 4.291.734 1.355.456 2.54 1.092 3.557 1.907 1.016.815 1.806 1.76 2.371 2.836a6.904 6.904 0 01.903 3.423 7.15 7.15 0 01-.677 3.032 8.173 8.173 0 01-1.92 2.543c-.79.75-1.75 1.402-2.879 1.956a13.848 13.848 0 01-3.557 1.124c1.28.326 2.578.864 3.896 1.614 1.355.717 2.578 1.777 3.669 3.179 1.13 1.402 2.052 3.195 2.767 5.379.753 2.151 1.129 4.808 1.129 7.97v.05c-.037.749.264 1.385.904 1.906a3.693 3.693 0 002.315.783v.098h-4.461c-.339 0-.64-.098-.903-.294a1.082 1.082 0 01-.339-.782v-4.646c0-.847-.075-1.81-.226-2.885a17.888 17.888 0 00-.79-3.276 13.976 13.976 0 00-1.468-3.227 10.549 10.549 0 00-2.315-2.837c-.941-.847-2.089-1.516-3.444-2.005-1.318-.521-2.861-.782-4.63-.782v18.044c0 .75.32 1.37.96 1.858.64.49 1.392.734 2.258.734v.098h-8.921v-.098c.866 0 1.619-.245 2.259-.734.64-.489.96-1.092.96-1.81V3.57c0-.783-.32-1.418-.96-1.907-.602-.522-1.355-.783-2.259-.783zm5.703 16.92c1.506.065 2.898-.066 4.178-.392 1.28-.358 2.39-.896 3.331-1.613a7.58 7.58 0 002.202-2.641c.527-1.043.791-2.217.791-3.52 0-1.142-.207-2.201-.621-3.18a6.812 6.812 0 00-1.694-2.59c-.753-.75-1.675-1.338-2.767-1.761-1.091-.457-2.315-.685-3.67-.685-.489 0-.903.147-1.242.44-.339.294-.508.636-.508 1.027V17.8zm19.939 17.848c1.43 1.206 2.804 1.988 4.122 2.347 1.317.359 2.409.538 3.274.538h3.953c1.355 0 2.616-.245 3.782-.733 1.205-.522 2.24-1.207 3.106-2.054a8.957 8.957 0 002.089-2.934 8.971 8.971 0 00.734-3.57 8.208 8.208 0 00-.791-3.57 8.754 8.754 0 00-2.202-2.885 10.696 10.696 0 00-3.274-2.005c-1.242-.489-2.579-.75-4.009-.782-1.619-.033-3.105-.31-4.46-.831-1.318-.522-2.466-1.223-3.445-2.103a9.677 9.677 0 01-2.202-3.032 8.873 8.873 0 01-.79-3.667c0-1.337.301-2.592.903-3.766a9.657 9.657 0 012.428-3.031c1.017-.88 2.202-1.565 3.557-2.054 1.393-.522 2.88-.783 4.461-.783h4.404c.301 0 .527-.065.677-.195a.775.775 0 00.226-.538h.169l4.348 4.205-.057.098c-1.43-1.206-2.804-1.988-4.121-2.347-1.318-.359-2.409-.538-3.275-.538h-1.412c-1.731 0-3.199.245-4.403.734-1.205.489-2.184 1.14-2.936 1.956a7.405 7.405 0 00-1.638 2.836 12.464 12.464 0 00-.451 3.374c0 1.01.188 2.054.564 3.13.414 1.075.96 2.037 1.637 2.884a8.803 8.803 0 002.428 2.103 6.008 6.008 0 003.106.832h2.089c1.581 0 3.049.26 4.404.782 1.392.521 2.597 1.239 3.613 2.152a9.857 9.857 0 012.428 3.178 8.638 8.638 0 01.903 3.912 8.84 8.84 0 01-.903 3.912 9.862 9.862 0 01-2.371 3.178 12.121 12.121 0 01-3.501 2.103c-1.317.522-2.71.782-4.178.782h-7.792c-.263 0-.47.066-.621.196a.853.853 0 00-.169.49h-.113l-4.404-4.206.113-.098z" fill="#BB9930"/></svg>